# xmcd
#
# Track frame offsets:
#	150
#	21715
#	42162
#	68077
#	91362
#
# Disc length: 1546 seconds
#
# Revision: 1
# Processed by: cddbd v1.5.1PL0 Copyright (c) Steve Scherf et al.
# Submitted via: CDex 1.50Beta5
#
DISCID=3e060805
DTITLE=織田裕二 - ON THE ROAD
DYEAR=1991
DGENRE=Pop
TTITLE0=心のかたち
TTITLE1=永遠の灯
TTITLE2=JUST RAIN
TTITLE3=ON THE ROAD
TTITLE4=歌えなかったラブ・ソング
EXTD=
EXTT0=
EXTT1=
EXTT2=
EXTT3=
EXTT4=
PLAYORDER=
